# Max2Obj Version 4.0 Mar 10th, 2001
#
mtllib ./UVsendTemp.mtl
g
# object Plane02 to come ...
#
v  639.173706 1329.092896 7128.003906
v  1446.307739 1329.092896 7128.003906
v  639.173706 1329.092896 6315.922852
v  1446.307739 1329.092896 6315.922852
# 4 vertices

vt  0.000000 0.000000 0.000000
vt  1.000000 0.000000 0.000000
vt  0.000000 0.000000 0.000000
vt  1.000000 0.000000 0.000000
vt  0.000000 0.000000 0.000000
vt  1.000000 0.000000 0.000000
vt  0.000000 1.000000 0.000000
vt  1.000000 1.000000 0.000000
# 8 texture vertices

vn  0.000000 0.250000 -0.000000
vn  0.000000 0.250000 -0.000000
vn  0.000000 0.250000 -0.000000
vn  0.000000 0.250000 -0.000000
# 4 vertex normals

g Plane02
usemtl jxmc_jzsj_cs0010_d_a_2924
s 1
f 1/5/1 2/6/2 4/8/4 3/7/3
# 1 faces

g
